<mxfile host="app.diagrams.net" modified="2023-11-22T00:23:36.429Z" agent="Mozilla/5.0 (Macintosh; Intel Mac OS X 10_15_7) AppleWebKit/537.36 (KHTML, like Gecko) Chrome/119.0.0.0 Safari/537.36" version="22.1.3" etag="w8M7r-9HZGmm0QTo6z4q" type="github">
  <diagram name="PÃ¡gina-1" id="qHs8zbuzxpMpTkiL1HQy">
    <mxGraphModel>
      <root>
        <mxCell id="0" />
        <mxCell id="1" parent="0" />
      </root>
    </mxGraphModel>
  </diagram>
</mxfile>
